<svg xmlns="http://www.w3.org/2000/svg" viewBox="0 0 1280 360" fill="none" role="img" aria-label="dodo — run .do files in DuckDB">
  <title>dodo — run .do files in DuckDB (dark)</title>

  
  <rect width="1280" height="360" fill="#111111"></rect>

  
  <g fill="#F3E7C9" opacity="0.10">
    <circle cx="40" cy="40" r="1.5"></circle>
    <circle cx="80" cy="40" r="1.5"></circle>
    <circle cx="120" cy="40" r="1.5"></circle>
    <circle cx="160" cy="40" r="1.5"></circle>
    <circle cx="40" cy="80" r="1.5"></circle>
    <circle cx="80" cy="80" r="1.5"></circle>
    <circle cx="120" cy="80" r="1.5"></circle>
    <circle cx="40" cy="120" r="1.5"></circle>
    <circle cx="80" cy="120" r="1.5"></circle>
    <circle cx="40" cy="160" r="1.5"></circle>
    <circle cx="1240" cy="40" r="1.5"></circle>
    <circle cx="1200" cy="40" r="1.5"></circle>
    <circle cx="1160" cy="40" r="1.5"></circle>
    <circle cx="1240" cy="80" r="1.5"></circle>
    <circle cx="1200" cy="80" r="1.5"></circle>
    <circle cx="1240" cy="120" r="1.5"></circle>
  </g>

  
  <rect x="0" y="352" width="1280" height="8" fill="#D8A44C"></rect>

  
  <g transform="translate(120,72)">
    <circle cx="116" cy="116" r="110" fill="#D8A44C" transform="translate(8,8)"></circle>
    <circle cx="116" cy="116" r="110" fill="#1A1A1A" stroke="#F3E7C9" stroke-width="6"></circle>
    <g transform="translate(-12,-12) scale(0.96)" stroke="#F3E7C9" stroke-width="7" stroke-linejoin="round" stroke-linecap="round" fill="#1A1A1A">
      <path d="M 74 200 C 50 188, 46 154, 62 130 C 66 116, 78 108, 90 104 C 90 86, 100 72, 116 66 C 124 50, 152 50, 168 64 C 180 76, 180 92, 172 102 L 224 124 L 172 146 C 180 158, 188 174, 186 188 C 184 198, 174 204, 162 204 L 98 204 C 84 204, 76 202, 74 200 Z"></path>
    </g>
    <circle cx="130" cy="68" r="6" fill="#F3E7C9"></circle>
    <path d="M 108 38 C 116 30, 128 30, 134 40" stroke="#F3E7C9" stroke-width="5" stroke-linecap="round" fill="none"></path>
  </g>

  
  <g transform="translate(430,0)">
    <text x="0" y="100" font-family="JetBrains Mono, ui-monospace, SFMono-Regular, Menlo, Consolas, monospace" font-weight="600" font-size="16" fill="#D8A44C" letter-spacing="2.5">DUCKDB EXTENSION · v0.1.0</text>
    <text x="-6" y="220" font-family="JetBrains Mono, ui-monospace, SFMono-Regular, Menlo, Consolas, monospace" font-weight="800" font-size="180" fill="#F3E7C9" letter-spacing="-11">dodo</text>
    <text x="0" y="270" font-family="IBM Plex Sans, -apple-system, BlinkMacSystemFont, Segoe UI, system-ui, sans-serif" font-weight="600" font-size="26" fill="#F7F2E8" letter-spacing="-0.4">run .do files in DuckDB.</text>
    <text x="0" y="306" font-family="JetBrains Mono, ui-monospace, SFMono-Regular, Menlo, Consolas, monospace" font-weight="500" font-size="16" fill="#9C927C" letter-spacing="0">walks like .do · quacks like DuckDB</text>
  </g>

  
  <g transform="translate(900,235)">
    <rect x="4" y="4" width="296" height="76" rx="12" fill="#D8A44C"></rect>
    <rect x="0" y="0" width="296" height="76" rx="12" fill="#15130E" stroke="#F3E7C9" stroke-width="3"></rect>
    <text x="20" y="34" font-family="JetBrains Mono, ui-monospace, SFMono-Regular, Menlo, Consolas, monospace" font-weight="700" font-size="16" fill="#D8A44C">D ›</text>
    <text x="55" y="34" font-family="JetBrains Mono, ui-monospace, SFMono-Regular, Menlo, Consolas, monospace" font-weight="500" font-size="16" fill="#F3E7C9">LOAD dodo;</text>
    <text x="20" y="58" font-family="JetBrains Mono, ui-monospace, SFMono-Regular, Menlo, Consolas, monospace" font-weight="700" font-size="16" fill="#D8A44C">D ›</text>
    <text x="55" y="58" font-family="JetBrains Mono, ui-monospace, SFMono-Regular, Menlo, Consolas, monospace" font-weight="500" font-size="16" fill="#F3E7C9">do &#34;clean.do&#34;;</text>
    <rect x="183" y="46" width="9" height="16" fill="#D8A44C"></rect>
  </g>
</svg>