<svg xmlns="http://www.w3.org/2000/svg" viewBox="0 0 720 240" fill="none">
  <title>dodo — primary horizontal lockup</title>
  
  <g transform="translate(0,0) scale(0.9375)">
    <circle cx="128" cy="128" r="116" fill="#D8A44C" stroke="#1A1A1A" stroke-width="8"></circle>
    <g stroke="#1A1A1A" stroke-width="8" stroke-linejoin="round" stroke-linecap="round" fill="#F3E7C9">
      <path d="M 74 200 C 50 188, 46 154, 62 130 C 66 116, 78 108, 90 104 C 90 86, 100 72, 116 66 C 124 50, 152 50, 168 64 C 180 76, 180 92, 172 102 L 224 124 L 172 146 C 180 158, 188 174, 186 188 C 184 198, 174 204, 162 204 L 98 204 C 84 204, 76 202, 74 200 Z"></path>
    </g>
    <circle cx="148" cy="84" r="7" fill="#1A1A1A"></circle>
    <path d="M 124 52 C 132 44, 144 44, 150 54" stroke="#1A1A1A" stroke-width="5" stroke-linecap="round" fill="none"></path>
  </g>
  
  <text x="270" y="138" font-family="JetBrains Mono, ui-monospace, monospace" font-weight="800" font-size="120" fill="#1A1A1A" letter-spacing="-7">dodo</text>
  <text x="276" y="194" font-family="JetBrains Mono, ui-monospace, monospace" font-weight="600" font-size="22" fill="#2A2722" letter-spacing="0">run .do files in duckdb</text>
</svg>