<svg xmlns="http://www.w3.org/2000/svg" viewBox="0 0 256 256" fill="none">
  <title>dodo — primary mark</title>

  
  <circle cx="128" cy="128" r="116" fill="#D8A44C" stroke="#1A1A1A" stroke-width="8"></circle>
  
  
  <g stroke="#1A1A1A" stroke-width="8" stroke-linejoin="round" stroke-linecap="round" fill="#F3E7C9">
    <path d="&#xA;      M 74 200&#xA;      C 50 188, 46 154, 62 130&#xA;      C 66 116, 78 108, 90 104&#xA;      C 90 86, 100 72, 116 66&#xA;      C 124 50, 152 50, 168 64&#xA;      C 180 76, 180 92, 172 102&#xA;      L 224 124&#xA;      L 172 146&#xA;      C 180 158, 188 174, 186 188&#xA;      C 184 198, 174 204, 162 204&#xA;      L 98 204&#xA;      C 84 204, 76 202, 74 200&#xA;      Z&#xA;    "></path>
  </g>

  
  <circle cx="148" cy="84" r="7" fill="#1A1A1A"></circle>

  
  <path d="M 124 52 C 132 44, 144 44, 150 54" stroke="#1A1A1A" stroke-width="5" stroke-linecap="round" fill="none"></path>
</svg>