<svg xmlns="http://www.w3.org/2000/svg" viewBox="0 0 256 256" fill="none">
  <title>dodo — mark, monochrome</title>
  <circle cx="128" cy="128" r="116" fill="#1A1A1A"></circle>
  <g stroke="#F3E7C9" stroke-width="8" stroke-linejoin="round" stroke-linecap="round" fill="#1A1A1A">
    <path d="M 74 200 C 50 188, 46 154, 62 130 C 66 116, 78 108, 90 104 C 90 86, 100 72, 116 66 C 124 50, 152 50, 168 64 C 180 76, 180 92, 172 102 L 224 124 L 172 146 C 180 158, 188 174, 186 188 C 184 198, 174 204, 162 204 L 98 204 C 84 204, 76 202, 74 200 Z"></path>
  </g>
  <circle cx="148" cy="84" r="7" fill="#F3E7C9"></circle>
  <path d="M 124 52 C 132 44, 144 44, 150 54" stroke="#F3E7C9" stroke-width="5" stroke-linecap="round" fill="none"></path>
</svg>