<svg xmlns="http://www.w3.org/2000/svg" viewBox="0 0 1280 640" fill="none" role="img" aria-label="dodo — DuckDB extension for .do files">
  <title>dodo — social card</title>

  
  <rect width="1280" height="640" fill="#F7F2E8"></rect>

  
  <g fill="#1A1A1A" opacity="0.07">
    <circle cx="40" cy="40" r="1.5"></circle>
    <circle cx="80" cy="40" r="1.5"></circle>
    <circle cx="120" cy="40" r="1.5"></circle>
    <circle cx="160" cy="40" r="1.5"></circle>
    <circle cx="200" cy="40" r="1.5"></circle>
    <circle cx="40" cy="80" r="1.5"></circle>
    <circle cx="80" cy="80" r="1.5"></circle>
    <circle cx="120" cy="80" r="1.5"></circle>
    <circle cx="160" cy="80" r="1.5"></circle>
    <circle cx="40" cy="120" r="1.5"></circle>
    <circle cx="80" cy="120" r="1.5"></circle>
    <circle cx="120" cy="120" r="1.5"></circle>
    <circle cx="40" cy="160" r="1.5"></circle>
    <circle cx="80" cy="160" r="1.5"></circle>
    <circle cx="40" cy="200" r="1.5"></circle>
    <circle cx="1240" cy="600" r="1.5"></circle>
    <circle cx="1200" cy="600" r="1.5"></circle>
    <circle cx="1160" cy="600" r="1.5"></circle>
    <circle cx="1120" cy="600" r="1.5"></circle>
    <circle cx="1080" cy="600" r="1.5"></circle>
    <circle cx="1240" cy="560" r="1.5"></circle>
    <circle cx="1200" cy="560" r="1.5"></circle>
    <circle cx="1160" cy="560" r="1.5"></circle>
    <circle cx="1240" cy="520" r="1.5"></circle>
    <circle cx="1200" cy="520" r="1.5"></circle>
  </g>

  
  <g transform="translate(110,180)">
    <circle cx="140" cy="140" r="132" fill="#1A1A1A" transform="translate(10,10)"></circle>
    <circle cx="140" cy="140" r="132" fill="#D8A44C" stroke="#1A1A1A" stroke-width="7"></circle>
    <g transform="translate(0,12) scale(1.15)" stroke="#1A1A1A" stroke-width="6.5" stroke-linejoin="round" stroke-linecap="round" fill="#F3E7C9">
      <path d="M 74 200 C 50 188, 46 154, 62 130 C 66 116, 78 108, 90 104 C 90 86, 100 72, 116 66 C 124 50, 152 50, 168 64 C 180 76, 180 92, 172 102 L 224 124 L 172 146 C 180 158, 188 174, 186 188 C 184 198, 174 204, 162 204 L 98 204 C 84 204, 76 202, 74 200 Z"></path>
    </g>
    <circle cx="150" cy="91" r="7" fill="#1A1A1A"></circle>
    <path d="M 126 58 C 134 50, 148 50, 156 60" stroke="#1A1A1A" stroke-width="5.5" stroke-linecap="round" fill="none"></path>
  </g>

  
  <g transform="translate(460,0)">
    <text x="0" y="200" font-family="JetBrains Mono, ui-monospace, monospace" font-weight="600" font-size="20" fill="#5E3D1C" letter-spacing="3">DUCKDB EXTENSION</text>
    <text x="-10" y="380" font-family="JetBrains Mono, ui-monospace, monospace" font-weight="800" font-size="220" fill="#1A1A1A" letter-spacing="-13">dodo</text>
    <text x="0" y="442" font-family="IBM Plex Sans, system-ui, sans-serif" font-weight="700" font-size="36" fill="#2A2722" letter-spacing="-0.6">Run .do files in DuckDB.</text>
    <text x="0" y="488" font-family="JetBrains Mono, ui-monospace, monospace" font-weight="500" font-size="20" fill="#6B6760">walks like .do · quacks like DuckDB</text>
  </g>

  
  <rect x="0" y="624" width="1280" height="16" fill="#1A1A1A"></rect>
  <rect x="0" y="624" width="320" height="16" fill="#D8A44C"></rect>
  <text x="60" y="600" font-family="JetBrains Mono, ui-monospace, monospace" font-weight="700" font-size="15" fill="#1A1A1A" letter-spacing="1.5">github.com/codedthinking/dodo</text>
  <text x="1220" y="600" text-anchor="end" font-family="JetBrains Mono, ui-monospace, monospace" font-weight="700" font-size="15" fill="#5E3D1C" letter-spacing="2">v0.1.0</text>
</svg>