<svg xmlns="http://www.w3.org/2000/svg" viewBox="0 0 720 200" fill="none">
  <title>dodo — pipeline diagram: .do file → dodo → DuckDB</title>

  
  <line x1="40" y1="100" x2="680" y2="100" stroke="#1A1A1A" stroke-width="3"></line>

  
  <g transform="translate(120,100)">
    <rect x="-72" y="-40" width="144" height="80" rx="12" fill="#F3E7C9" stroke="#1A1A1A" stroke-width="3"></rect>
    
    <g transform="translate(-46,-22)" stroke="#1A1A1A" stroke-width="2.5" stroke-linejoin="round" fill="#FFFCF4">
      <path d="M 0 0 L 22 0 L 32 10 L 32 38 L 0 38 Z"></path>
      <path d="M 22 0 L 22 10 L 32 10" fill="none"></path>
    </g>
    <text x="6" y="-2" text-anchor="middle" font-family="JetBrains Mono, ui-monospace, monospace" font-weight="800" font-size="22" fill="#1A1A1A" letter-spacing="-0.5">.do</text>
    <text x="6" y="20" text-anchor="middle" font-family="JetBrains Mono, ui-monospace, monospace" font-weight="600" font-size="14" fill="#2A2722">file</text>
    <text x="0" y="60" text-anchor="middle" font-family="IBM Plex Sans, system-ui, sans-serif" font-size="12" fill="#6B6760" letter-spacing="1.4">SCRIPT</text>
  </g>

  
  <path d="M 198 100 L 268 100 M 256 91 L 268 100 L 256 109" stroke="#1A1A1A" stroke-width="3" fill="none" stroke-linecap="round" stroke-linejoin="round"></path>

  
  <g transform="translate(360,100)">
    <rect x="-90" y="-40" width="180" height="80" rx="12" fill="#D8A44C" stroke="#1A1A1A" stroke-width="3"></rect>
    
    <g transform="translate(-72,-25) scale(0.195)">
      <circle cx="128" cy="128" r="116" fill="#F3E7C9" stroke="#1A1A1A" stroke-width="14"></circle>
      <path d="M 74 200 C 50 188, 46 154, 62 130 C 66 116, 78 108, 90 104 C 90 86, 100 72, 116 66 C 124 50, 152 50, 168 64 C 180 76, 180 92, 172 102 L 224 124 L 172 146 C 180 158, 188 174, 186 188 C 184 198, 174 204, 162 204 L 98 204 C 84 204, 76 202, 74 200 Z" fill="#D8A44C" stroke="#1A1A1A" stroke-width="14" stroke-linejoin="round"></path>
      <circle cx="148" cy="84" r="10" fill="#1A1A1A"></circle>
    </g>
    <text x="20" y="10" text-anchor="middle" font-family="JetBrains Mono, ui-monospace, monospace" font-weight="800" font-size="34" fill="#1A1A1A" letter-spacing="-2">dodo</text>
    <text x="0" y="60" text-anchor="middle" font-family="IBM Plex Sans, system-ui, sans-serif" font-size="12" fill="#5E3D1C" letter-spacing="1.4">RUNTIME</text>
  </g>

  
  <path d="M 452 100 L 522 100 M 510 91 L 522 100 L 510 109" stroke="#1A1A1A" stroke-width="3" fill="none" stroke-linecap="round" stroke-linejoin="round"></path>

  
  <g transform="translate(600,100)">
    <rect x="-92" y="-40" width="184" height="80" rx="12" fill="#FFFCF4" stroke="#1A1A1A" stroke-width="3"></rect>
    
    <g transform="translate(-72,-22)" stroke="#1A1A1A" stroke-width="2.5" stroke-linejoin="round" stroke-linecap="round">
      
      <ellipse cx="22" cy="28" rx="22" ry="14" fill="#FFE033"></ellipse>
      
      <circle cx="34" cy="13" r="10" fill="#FFE033"></circle>
      
      <path d="M 42 11 L 54 12 L 50 18 L 42 17 Z" fill="#F2A600"></path>
      
      <circle cx="36" cy="11" r="1.6" fill="#1A1A1A"></circle>
      
      <path d="M 16 26 q 6 -4 14 -1" fill="none"></path>
    </g>
    <text x="14" y="8" text-anchor="middle" font-family="IBM Plex Sans, system-ui, sans-serif" font-weight="700" font-size="26" fill="#1A1A1A" letter-spacing="-0.6">DuckDB</text>
    <text x="0" y="60" text-anchor="middle" font-family="IBM Plex Sans, system-ui, sans-serif" font-size="12" fill="#6B6760" letter-spacing="1.4">ENGINE</text>
  </g>
</svg>